<mxfile host="app.diagrams.net" modified="2024-03-11T19:52:49.711Z" agent="Mozilla/5.0 (Windows NT 10.0; Win64; x64) AppleWebKit/537.36 (KHTML, like Gecko) Chrome/122.0.0.0 Safari/537.36 Edg/122.0.0.0" etag="bWMxkhlc5AfTIbqpBb4_" version="24.0.4" type="device">
  <diagram name="Page-1" id="c-qqvb9lGXKxB4pL6mV6">
    <mxGraphModel dx="1048" dy="568" grid="1" gridSize="10" guides="1" tooltips="1" connect="1" arrows="1" fold="1" page="1" pageScale="1" pageWidth="827" pageHeight="1169" math="0" shadow="0">
      <root>
        <mxCell id="0" />
        <mxCell id="1" parent="0" />
        <mxCell id="2Vkl96R6JEgXKzXN8Itr-52" value="" style="rounded=0;whiteSpace=wrap;html=1;strokeColor=none;" vertex="1" parent="1">
          <mxGeometry y="60" width="760" height="300" as="geometry" />
        </mxCell>
        <mxCell id="2Vkl96R6JEgXKzXN8Itr-2" value="study" style="rounded=1;whiteSpace=wrap;html=1;fillColor=#fff2cc;strokeColor=#d6b656;fontFamily=Raleway;fontSource=https%3A%2F%2Ffonts.googleapis.com%2Fcss%3Ffamily%3DRaleway;fontSize=10;" vertex="1" parent="1">
          <mxGeometry x="340" y="100" width="80" height="40" as="geometry" />
        </mxCell>
        <mxCell id="2Vkl96R6JEgXKzXN8Itr-4" value="folder" style="text;html=1;align=center;verticalAlign=middle;whiteSpace=wrap;rounded=0;fontSize=8;fontColor=#D6B656;fontFamily=Raleway;fontSource=https%3A%2F%2Ffonts.googleapis.com%2Fcss%3Ffamily%3DRaleway;" vertex="1" parent="1">
          <mxGeometry x="390" y="90" width="30" height="10" as="geometry" />
        </mxCell>
        <mxCell id="2Vkl96R6JEgXKzXN8Itr-5" value="gps" style="rounded=1;whiteSpace=wrap;html=1;fillColor=#fff2cc;strokeColor=#d6b656;fontFamily=Raleway;fontSource=https%3A%2F%2Ffonts.googleapis.com%2Fcss%3Ffamily%3DRaleway;fontSize=10;" vertex="1" parent="1">
          <mxGeometry x="160" y="200" width="80" height="40" as="geometry" />
        </mxCell>
        <mxCell id="2Vkl96R6JEgXKzXN8Itr-6" value="folder" style="text;html=1;align=center;verticalAlign=middle;whiteSpace=wrap;rounded=0;fontSize=8;fontColor=#D6B656;fontFamily=Raleway;fontSource=https%3A%2F%2Ffonts.googleapis.com%2Fcss%3Ffamily%3DRaleway;" vertex="1" parent="1">
          <mxGeometry x="210" y="190" width="30" height="10" as="geometry" />
        </mxCell>
        <mxCell id="2Vkl96R6JEgXKzXN8Itr-7" value="gis" style="rounded=1;whiteSpace=wrap;html=1;fillColor=#fff2cc;strokeColor=#d6b656;fontFamily=Raleway;fontSource=https%3A%2F%2Ffonts.googleapis.com%2Fcss%3Ffamily%3DRaleway;fontSize=10;" vertex="1" parent="1">
          <mxGeometry x="280" y="200" width="80" height="40" as="geometry" />
        </mxCell>
        <mxCell id="2Vkl96R6JEgXKzXN8Itr-8" value="folder" style="text;html=1;align=center;verticalAlign=middle;whiteSpace=wrap;rounded=0;fontSize=8;fontColor=#D6B656;fontFamily=Raleway;fontSource=https%3A%2F%2Ffonts.googleapis.com%2Fcss%3Ffamily%3DRaleway;" vertex="1" parent="1">
          <mxGeometry x="330" y="190" width="30" height="10" as="geometry" />
        </mxCell>
        <mxCell id="2Vkl96R6JEgXKzXN8Itr-9" value="output" style="rounded=1;whiteSpace=wrap;html=1;fillColor=#fff2cc;strokeColor=#d6b656;fontFamily=Raleway;fontSource=https%3A%2F%2Ffonts.googleapis.com%2Fcss%3Ffamily%3DRaleway;fontSize=10;" vertex="1" parent="1">
          <mxGeometry x="520" y="200" width="80" height="40" as="geometry" />
        </mxCell>
        <mxCell id="2Vkl96R6JEgXKzXN8Itr-10" value="folder" style="text;html=1;align=center;verticalAlign=middle;whiteSpace=wrap;rounded=0;fontSize=8;fontColor=#D6B656;fontFamily=Raleway;fontSource=https%3A%2F%2Ffonts.googleapis.com%2Fcss%3Ffamily%3DRaleway;" vertex="1" parent="1">
          <mxGeometry x="570" y="190" width="30" height="10" as="geometry" />
        </mxCell>
        <mxCell id="2Vkl96R6JEgXKzXN8Itr-11" value="acl" style="rounded=1;whiteSpace=wrap;html=1;fillColor=#fff2cc;strokeColor=#d6b656;fontFamily=Raleway;fontSource=https%3A%2F%2Ffonts.googleapis.com%2Fcss%3Ffamily%3DRaleway;fontSize=10;" vertex="1" parent="1">
          <mxGeometry x="40" y="200" width="80" height="40" as="geometry" />
        </mxCell>
        <mxCell id="2Vkl96R6JEgXKzXN8Itr-12" value="folder" style="text;html=1;align=center;verticalAlign=middle;whiteSpace=wrap;rounded=0;fontSize=8;fontColor=#D6B656;fontFamily=Raleway;fontSource=https%3A%2F%2Ffonts.googleapis.com%2Fcss%3Ffamily%3DRaleway;" vertex="1" parent="1">
          <mxGeometry x="90" y="190" width="30" height="10" as="geometry" />
        </mxCell>
        <mxCell id="2Vkl96R6JEgXKzXN8Itr-13" value="linkage.csv" style="rounded=1;whiteSpace=wrap;html=1;fillColor=#f5f5f5;strokeColor=#666666;fontFamily=Raleway;fontSource=https%3A%2F%2Ffonts.googleapis.com%2Fcss%3Ffamily%3DRaleway;fontSize=10;fontColor=#333333;" vertex="1" parent="1">
          <mxGeometry x="640" y="200" width="80" height="40" as="geometry" />
        </mxCell>
        <mxCell id="2Vkl96R6JEgXKzXN8Itr-14" value="file" style="text;html=1;align=center;verticalAlign=middle;whiteSpace=wrap;rounded=0;fontSize=8;fontColor=#666666;fontFamily=Raleway;fontSource=https%3A%2F%2Ffonts.googleapis.com%2Fcss%3Ffamily%3DRaleway;" vertex="1" parent="1">
          <mxGeometry x="690" y="190" width="30" height="10" as="geometry" />
        </mxCell>
        <mxCell id="2Vkl96R6JEgXKzXN8Itr-15" value="configs" style="rounded=1;whiteSpace=wrap;html=1;fillColor=#fff2cc;strokeColor=#d6b656;fontFamily=Raleway;fontSource=https%3A%2F%2Ffonts.googleapis.com%2Fcss%3Ffamily%3DRaleway;fontSize=10;" vertex="1" parent="1">
          <mxGeometry x="400" y="200" width="80" height="40" as="geometry" />
        </mxCell>
        <mxCell id="2Vkl96R6JEgXKzXN8Itr-16" value="folder" style="text;html=1;align=center;verticalAlign=middle;whiteSpace=wrap;rounded=0;fontSize=8;fontColor=#D6B656;fontFamily=Raleway;fontSource=https%3A%2F%2Ffonts.googleapis.com%2Fcss%3Ffamily%3DRaleway;" vertex="1" parent="1">
          <mxGeometry x="450" y="190" width="30" height="10" as="geometry" />
        </mxCell>
        <mxCell id="2Vkl96R6JEgXKzXN8Itr-17" value="1.csv" style="rounded=1;whiteSpace=wrap;html=1;fillColor=#f5f5f5;strokeColor=#666666;fontFamily=Raleway;fontSource=https%3A%2F%2Ffonts.googleapis.com%2Fcss%3Ffamily%3DRaleway;fontSize=6;fontColor=#333333;" vertex="1" parent="1">
          <mxGeometry x="40" y="270" width="80" height="10" as="geometry" />
        </mxCell>
        <mxCell id="2Vkl96R6JEgXKzXN8Itr-18" value="files" style="text;html=1;align=center;verticalAlign=middle;whiteSpace=wrap;rounded=0;fontSize=8;fontColor=#666666;fontFamily=Raleway;fontSource=https%3A%2F%2Ffonts.googleapis.com%2Fcss%3Ffamily%3DRaleway;" vertex="1" parent="1">
          <mxGeometry x="90" y="260" width="30" height="10" as="geometry" />
        </mxCell>
        <mxCell id="2Vkl96R6JEgXKzXN8Itr-19" value="2.csv" style="rounded=1;whiteSpace=wrap;html=1;fillColor=#f5f5f5;strokeColor=#666666;fontFamily=Raleway;fontSource=https%3A%2F%2Ffonts.googleapis.com%2Fcss%3Ffamily%3DRaleway;fontSize=6;fontColor=#333333;" vertex="1" parent="1">
          <mxGeometry x="40" y="310" width="80" height="10" as="geometry" />
        </mxCell>
        <mxCell id="2Vkl96R6JEgXKzXN8Itr-21" value="3.csv" style="rounded=1;whiteSpace=wrap;html=1;fillColor=#f5f5f5;strokeColor=#666666;fontFamily=Raleway;fontSource=https%3A%2F%2Ffonts.googleapis.com%2Fcss%3Ffamily%3DRaleway;fontSize=6;fontColor=#333333;" vertex="1" parent="1">
          <mxGeometry x="40" y="290" width="80" height="10" as="geometry" />
        </mxCell>
        <mxCell id="2Vkl96R6JEgXKzXN8Itr-23" value="1.csv" style="rounded=1;whiteSpace=wrap;html=1;fillColor=#f5f5f5;strokeColor=#666666;fontFamily=Raleway;fontSource=https%3A%2F%2Ffonts.googleapis.com%2Fcss%3Ffamily%3DRaleway;fontSize=6;fontColor=#333333;" vertex="1" parent="1">
          <mxGeometry x="160" y="270" width="80" height="10" as="geometry" />
        </mxCell>
        <mxCell id="2Vkl96R6JEgXKzXN8Itr-24" value="files" style="text;html=1;align=center;verticalAlign=middle;whiteSpace=wrap;rounded=0;fontSize=8;fontColor=#666666;fontFamily=Raleway;fontSource=https%3A%2F%2Ffonts.googleapis.com%2Fcss%3Ffamily%3DRaleway;" vertex="1" parent="1">
          <mxGeometry x="210" y="260" width="30" height="10" as="geometry" />
        </mxCell>
        <mxCell id="2Vkl96R6JEgXKzXN8Itr-25" value="2.csv" style="rounded=1;whiteSpace=wrap;html=1;fillColor=#f5f5f5;strokeColor=#666666;fontFamily=Raleway;fontSource=https%3A%2F%2Ffonts.googleapis.com%2Fcss%3Ffamily%3DRaleway;fontSize=6;fontColor=#333333;" vertex="1" parent="1">
          <mxGeometry x="160" y="290" width="80" height="10" as="geometry" />
        </mxCell>
        <mxCell id="2Vkl96R6JEgXKzXN8Itr-26" value="3.csv" style="rounded=1;whiteSpace=wrap;html=1;fillColor=#f5f5f5;strokeColor=#666666;fontFamily=Raleway;fontSource=https%3A%2F%2Ffonts.googleapis.com%2Fcss%3Ffamily%3DRaleway;fontSize=6;fontColor=#333333;" vertex="1" parent="1">
          <mxGeometry x="160" y="310" width="80" height="10" as="geometry" />
        </mxCell>
        <mxCell id="2Vkl96R6JEgXKzXN8Itr-29" value="config_GGIR_counts.csv" style="rounded=1;whiteSpace=wrap;html=1;fillColor=#f5f5f5;strokeColor=#666666;fontFamily=Raleway;fontSource=https%3A%2F%2Ffonts.googleapis.com%2Fcss%3Ffamily%3DRaleway;fontSize=6;fontColor=#333333;" vertex="1" parent="1">
          <mxGeometry x="400" y="270" width="80" height="10" as="geometry" />
        </mxCell>
        <mxCell id="2Vkl96R6JEgXKzXN8Itr-30" value="files" style="text;html=1;align=center;verticalAlign=middle;whiteSpace=wrap;rounded=0;fontSize=8;fontColor=#666666;fontFamily=Raleway;fontSource=https%3A%2F%2Ffonts.googleapis.com%2Fcss%3Ffamily%3DRaleway;" vertex="1" parent="1">
          <mxGeometry x="450" y="260" width="30" height="10" as="geometry" />
        </mxCell>
        <mxCell id="2Vkl96R6JEgXKzXN8Itr-31" value="config_hbGIS.csv" style="rounded=1;whiteSpace=wrap;html=1;fillColor=#f5f5f5;strokeColor=#666666;fontFamily=Raleway;fontSource=https%3A%2F%2Ffonts.googleapis.com%2Fcss%3Ffamily%3DRaleway;fontSize=6;fontColor=#333333;" vertex="1" parent="1">
          <mxGeometry x="400" y="310" width="80" height="10" as="geometry" />
        </mxCell>
        <mxCell id="2Vkl96R6JEgXKzXN8Itr-32" value="config_hbGPS.csv" style="rounded=1;whiteSpace=wrap;html=1;fillColor=#f5f5f5;strokeColor=#666666;fontFamily=Raleway;fontSource=https%3A%2F%2Ffonts.googleapis.com%2Fcss%3Ffamily%3DRaleway;fontSize=6;fontColor=#333333;" vertex="1" parent="1">
          <mxGeometry x="400" y="290" width="80" height="10" as="geometry" />
        </mxCell>
        <mxCell id="2Vkl96R6JEgXKzXN8Itr-33" value="shapely" style="rounded=1;whiteSpace=wrap;html=1;fillColor=#f5f5f5;strokeColor=#666666;fontFamily=Raleway;fontSource=https%3A%2F%2Ffonts.googleapis.com%2Fcss%3Ffamily%3DRaleway;fontSize=6;fontColor=#333333;" vertex="1" parent="1">
          <mxGeometry x="280" y="270" width="80" height="10" as="geometry" />
        </mxCell>
        <mxCell id="2Vkl96R6JEgXKzXN8Itr-34" value="files" style="text;html=1;align=center;verticalAlign=middle;whiteSpace=wrap;rounded=0;fontSize=8;fontColor=#666666;fontFamily=Raleway;fontSource=https%3A%2F%2Ffonts.googleapis.com%2Fcss%3Ffamily%3DRaleway;" vertex="1" parent="1">
          <mxGeometry x="330" y="260" width="30" height="10" as="geometry" />
        </mxCell>
        <mxCell id="2Vkl96R6JEgXKzXN8Itr-37" value="additional" style="rounded=1;whiteSpace=wrap;html=1;fillColor=#f5f5f5;strokeColor=#666666;fontFamily=Raleway;fontSource=https%3A%2F%2Ffonts.googleapis.com%2Fcss%3Ffamily%3DRaleway;fontSize=6;fontColor=#333333;" vertex="1" parent="1">
          <mxGeometry x="280" y="290" width="80" height="10" as="geometry" />
        </mxCell>
        <mxCell id="2Vkl96R6JEgXKzXN8Itr-39" value="" style="endArrow=none;html=1;rounded=0;entryX=0.5;entryY=1;entryDx=0;entryDy=0;exitX=0.5;exitY=0;exitDx=0;exitDy=0;edgeStyle=orthogonalEdgeStyle;strokeColor=#666666;" edge="1" parent="1" source="2Vkl96R6JEgXKzXN8Itr-11" target="2Vkl96R6JEgXKzXN8Itr-2">
          <mxGeometry width="50" height="50" relative="1" as="geometry">
            <mxPoint x="380" y="160" as="sourcePoint" />
            <mxPoint x="400" y="270" as="targetPoint" />
          </mxGeometry>
        </mxCell>
        <mxCell id="2Vkl96R6JEgXKzXN8Itr-42" value="" style="endArrow=none;html=1;rounded=0;exitX=0.5;exitY=0;exitDx=0;exitDy=0;strokeColor=#666666;" edge="1" parent="1" source="2Vkl96R6JEgXKzXN8Itr-5">
          <mxGeometry width="50" height="50" relative="1" as="geometry">
            <mxPoint x="350" y="320" as="sourcePoint" />
            <mxPoint x="200" y="170" as="targetPoint" />
          </mxGeometry>
        </mxCell>
        <mxCell id="2Vkl96R6JEgXKzXN8Itr-43" value="" style="endArrow=none;html=1;rounded=0;exitX=0.5;exitY=0;exitDx=0;exitDy=0;strokeColor=#666666;" edge="1" parent="1">
          <mxGeometry width="50" height="50" relative="1" as="geometry">
            <mxPoint x="319.8" y="200" as="sourcePoint" />
            <mxPoint x="319.8" y="170" as="targetPoint" />
          </mxGeometry>
        </mxCell>
        <mxCell id="2Vkl96R6JEgXKzXN8Itr-44" value="" style="endArrow=none;html=1;rounded=0;exitX=0.5;exitY=0;exitDx=0;exitDy=0;strokeColor=#666666;" edge="1" parent="1">
          <mxGeometry width="50" height="50" relative="1" as="geometry">
            <mxPoint x="439.8" y="200" as="sourcePoint" />
            <mxPoint x="439.8" y="170" as="targetPoint" />
          </mxGeometry>
        </mxCell>
        <mxCell id="2Vkl96R6JEgXKzXN8Itr-45" value="" style="endArrow=none;html=1;rounded=0;exitX=0.5;exitY=0;exitDx=0;exitDy=0;strokeColor=#666666;" edge="1" parent="1">
          <mxGeometry width="50" height="50" relative="1" as="geometry">
            <mxPoint x="559.8" y="200" as="sourcePoint" />
            <mxPoint x="559.8" y="170" as="targetPoint" />
          </mxGeometry>
        </mxCell>
        <mxCell id="2Vkl96R6JEgXKzXN8Itr-46" value="" style="endArrow=none;html=1;rounded=0;exitX=0.5;exitY=0;exitDx=0;exitDy=0;edgeStyle=orthogonalEdgeStyle;strokeColor=#666666;" edge="1" parent="1" source="2Vkl96R6JEgXKzXN8Itr-13">
          <mxGeometry width="50" height="50" relative="1" as="geometry">
            <mxPoint x="90" y="210" as="sourcePoint" />
            <mxPoint x="380" y="140" as="targetPoint" />
            <Array as="points">
              <mxPoint x="680" y="170" />
              <mxPoint x="380" y="170" />
            </Array>
          </mxGeometry>
        </mxCell>
        <mxCell id="2Vkl96R6JEgXKzXN8Itr-47" value="" style="endArrow=none;html=1;rounded=0;exitX=0.5;exitY=0;exitDx=0;exitDy=0;strokeColor=#666666;" edge="1" parent="1">
          <mxGeometry width="50" height="50" relative="1" as="geometry">
            <mxPoint x="79.75999999999999" y="270" as="sourcePoint" />
            <mxPoint x="79.75999999999999" y="240" as="targetPoint" />
          </mxGeometry>
        </mxCell>
        <mxCell id="2Vkl96R6JEgXKzXN8Itr-48" value="" style="endArrow=none;html=1;rounded=0;exitX=0.5;exitY=0;exitDx=0;exitDy=0;strokeColor=#666666;" edge="1" parent="1">
          <mxGeometry width="50" height="50" relative="1" as="geometry">
            <mxPoint x="199.76" y="270" as="sourcePoint" />
            <mxPoint x="199.76" y="240" as="targetPoint" />
          </mxGeometry>
        </mxCell>
        <mxCell id="2Vkl96R6JEgXKzXN8Itr-49" value="" style="endArrow=none;html=1;rounded=0;exitX=0.5;exitY=0;exitDx=0;exitDy=0;strokeColor=#666666;" edge="1" parent="1">
          <mxGeometry width="50" height="50" relative="1" as="geometry">
            <mxPoint x="319.76" y="270" as="sourcePoint" />
            <mxPoint x="319.76" y="240" as="targetPoint" />
          </mxGeometry>
        </mxCell>
        <mxCell id="2Vkl96R6JEgXKzXN8Itr-50" value="" style="endArrow=none;html=1;rounded=0;exitX=0.5;exitY=0;exitDx=0;exitDy=0;strokeColor=#666666;" edge="1" parent="1">
          <mxGeometry width="50" height="50" relative="1" as="geometry">
            <mxPoint x="439.76" y="270" as="sourcePoint" />
            <mxPoint x="439.76" y="240" as="targetPoint" />
          </mxGeometry>
        </mxCell>
      </root>
    </mxGraphModel>
  </diagram>
</mxfile>
